<mxfile host="app.diagrams.net" agent="Mozilla/5.0 (Windows NT 10.0; Win64; x64) AppleWebKit/537.36 (KHTML, like Gecko) Chrome/127.0.0.0 Safari/537.36" version="24.7.13">
  <diagram name="Page-1" id="e7e014a7-5840-1c2e-5031-d8a46d1fe8dd">
    <mxGraphModel dx="1192" dy="1105" grid="1" gridSize="10" guides="1" tooltips="1" connect="1" arrows="1" fold="1" page="1" pageScale="1" pageWidth="1169" pageHeight="826" background="none" math="0" shadow="0">
      <root>
        <mxCell id="0" />
        <mxCell id="1" parent="0" />
        <mxCell id="YNgotfLtQQWeTE_hUJUd-41" value="Game" style="rounded=0;whiteSpace=wrap;html=1;" vertex="1" parent="1">
          <mxGeometry x="210" y="130" width="120" height="60" as="geometry" />
        </mxCell>
        <mxCell id="YNgotfLtQQWeTE_hUJUd-43" value="Level" style="rounded=0;whiteSpace=wrap;html=1;" vertex="1" parent="1">
          <mxGeometry x="420" y="130" width="120" height="60" as="geometry" />
        </mxCell>
        <mxCell id="YNgotfLtQQWeTE_hUJUd-44" value="Frog" style="rounded=0;whiteSpace=wrap;html=1;" vertex="1" parent="1">
          <mxGeometry x="630" y="130" width="120" height="60" as="geometry" />
        </mxCell>
        <mxCell id="YNgotfLtQQWeTE_hUJUd-45" value="HeadsUpDisplay" style="rounded=0;whiteSpace=wrap;html=1;" vertex="1" parent="1">
          <mxGeometry x="840" y="130" width="120" height="60" as="geometry" />
        </mxCell>
        <mxCell id="YNgotfLtQQWeTE_hUJUd-46" value="HeadsUpDisplay&lt;div&gt;levels&lt;/div&gt;&lt;div&gt;lives&lt;/div&gt;" style="whiteSpace=wrap;html=1;aspect=fixed;" vertex="1" parent="1">
          <mxGeometry x="210" y="190" width="120" height="120" as="geometry" />
        </mxCell>
        <mxCell id="YNgotfLtQQWeTE_hUJUd-47" value="terrainType&lt;div&gt;trafficSpeed&lt;/div&gt;&lt;div&gt;riverSpeed&lt;/div&gt;&lt;div&gt;obstacles&lt;/div&gt;" style="whiteSpace=wrap;html=1;aspect=fixed;" vertex="1" parent="1">
          <mxGeometry x="420" y="190" width="120" height="120" as="geometry" />
        </mxCell>
        <mxCell id="YNgotfLtQQWeTE_hUJUd-48" value="left&lt;div&gt;right&lt;/div&gt;&lt;div&gt;up&lt;/div&gt;&lt;div&gt;down&lt;/div&gt;" style="whiteSpace=wrap;html=1;aspect=fixed;" vertex="1" parent="1">
          <mxGeometry x="630" y="190" width="120" height="120" as="geometry" />
        </mxCell>
        <mxCell id="YNgotfLtQQWeTE_hUJUd-49" value="currentScore&lt;div&gt;highScore&lt;/div&gt;" style="whiteSpace=wrap;html=1;aspect=fixed;" vertex="1" parent="1">
          <mxGeometry x="840" y="190" width="120" height="120" as="geometry" />
        </mxCell>
        <mxCell id="YNgotfLtQQWeTE_hUJUd-51" value="&lt;div&gt;update(float delta)&lt;/div&gt;changeLevel()&lt;div&gt;gainLife()&lt;/div&gt;&lt;div&gt;loseLife()&lt;/div&gt;&lt;div&gt;gameOver()&lt;/div&gt;" style="whiteSpace=wrap;html=1;aspect=fixed;" vertex="1" parent="1">
          <mxGeometry x="210" y="310" width="120" height="120" as="geometry" />
        </mxCell>
        <mxCell id="YNgotfLtQQWeTE_hUJUd-52" value="spawnObstacle()&lt;div&gt;changeTerrainType()&lt;/div&gt;&lt;div&gt;changeTrafficSpeed()&lt;/div&gt;&lt;div&gt;changeRiverSpeed()&lt;/div&gt;" style="whiteSpace=wrap;html=1;aspect=fixed;" vertex="1" parent="1">
          <mxGeometry x="420" y="310" width="120" height="120" as="geometry" />
        </mxCell>
        <mxCell id="YNgotfLtQQWeTE_hUJUd-53" value="" style="whiteSpace=wrap;html=1;aspect=fixed;" vertex="1" parent="1">
          <mxGeometry x="630" y="310" width="120" height="120" as="geometry" />
        </mxCell>
        <mxCell id="YNgotfLtQQWeTE_hUJUd-54" value="updateCurrentScore()&lt;div&gt;updateHighScore()&lt;/div&gt;" style="whiteSpace=wrap;html=1;aspect=fixed;" vertex="1" parent="1">
          <mxGeometry x="840" y="310" width="120" height="120" as="geometry" />
        </mxCell>
      </root>
    </mxGraphModel>
  </diagram>
</mxfile>
